# AST/ASF file generated using VICON BodyLanguage
# -----------------------------------------------
:version 1.10
:name VICON
:units
  mass 1.0
  length 0.45
  angle deg
:documentation
   .ast/.asf automatically generated from VICON data using
   VICON BodyBuilder and BodyLanguage model FoxedUp or BRILLIANT.MOD
:root
   order TX TY TZ RX RY RZ
   axis XYZ
   position 0 0 0  
   orientation 0 0 0 
:bonedata
  begin
     id 1 
     name lhipjoint
     direction 0.621036 -0.695554 0.361275 
     length 2.46325 
     axis 0 0 0  XYZ
  end
  begin
     id 2 
     name lfemur
     direction 0.34202 -0.939693 0  
     length 6.54784  
     axis 0 0 20  XYZ
    dof rx ry rz
    limits (-160.0 20.0)
           (-70.0 70.0)
           (-60.0 70.0)
  end
  begin
     id 3 
     name ltibia
     direction 0.34202 -0.939693 0   
     length 7.84737   
     axis 0 0 20   XYZ
    dof rx
    limits (-10.0 170.0)
  end
  begin
     id 4 
     name lfoot
     direction 0.0790693 -0.217241 0.97291   
     length 2.59747   
     axis -90 7.62852e-016 20   XYZ
    dof rx rz
    limits (-45.0 90.0)
           (-70.0 20.0)
  end
  begin
     id 5 
     name ltoes
     direction 1.53572e-011 -4.21898e-011 1   
     length 1.29919   
     axis -90 7.62852e-016 20   XYZ
    dof rx
    limits (-90.0 20.0)
  end
  begin
     id 6 
     name rhipjoint
     direction -0.602353 -0.708375 0.367935   
     length 2.41867  
     axis 0 0 0  XYZ 
  end
  begin
     id 7 
     name rfemur
     direction -0.34202 -0.939693 0   
     length 6.92065   
     axis 0 0 -20   XYZ
    dof rx ry rz
    limits (-160.0 20.0)
           (-70.0 70.0)
           (-70.0 60.0)
  end
  begin
     id 8 
     name rtibia
     direction -0.34202 -0.939693 0   
     length 7.88883   
     axis 0 0 -20   XYZ
    dof rx
    limits (-10.0 170.0)
 end
 begin
     id 9 
     name rfoot
     direction -0.0768692 -0.211196 0.974416   
     length 2.43714  
     axis -90 -7.62852e-016 -20   XYZ
    dof rx rz
    limits (-45.0 90.0)
           (-20.0 70.0)
  end
  begin
     id 10 
     name rtoes
     direction -1.53575e-011 -4.21933e-011 1   
     length 1.22113   
     axis -90 -7.62852e-016 -20   XYZ
    dof rx
    limits (-90.0 20.0)
  end
  begin
     id 11 
     name lowerback
     direction 0.0197937 0.98943 -0.143655   
     length 2.16931   
     axis 0 0 0   XYZ
    dof rx ry rz
    limits (-20.0 45.0)
           (-30.0 30.0)
           (-30.0 30.0)
  end
  begin
     id 12 
     name upperback
     direction -0.00183968 0.999975 0.00684288   
     length 2.17221   
     axis 0 0 0   XYZ
    dof rx ry rz
    limits (-20.0 45.0)
           (-30.0 30.0)
           (-30.0 30.0)
  end
  begin
     id 13 
     name thorax
     direction -0.00950244 0.997208 0.0740685   
     length 2.22549   
     axis 0 0 0   XYZ
    dof rx ry rz
    limits (-20.0 45.0)
           (-30.0 30.0)
           (-30.0 30.0)
  end
  begin
     id 14 
     name lowerneck
     direction 0.0218238 0.996215 0.0841425   
     length 1.77269   
     axis 0 0 0   XYZ
    dof rx ry rz
    limits (-20.0 45.0)
           (-30.0 30.0)
           (-30.0 30.0)
  end
  begin
     id 15 
     name upperneck
     direction -0.00430652 0.994214 -0.107332   
     length 1.76534   
     axis 0 0 0   XYZ
    dof rx ry rz
    limits (-20.0 45.0)
           (-30.0 30.0)
           (-30.0 30.0)
  end
  begin
     id 16
     name head
     direction -0.00328946 0.998959 -0.0454998  
     length 1.82634  
     axis 0 0 0   XYZ
    dof rx ry rz
    limits (-20.0 45.0)
           (-30.0 30.0)
           (-30.0 30.0)
  end
  begin
     id 17 
     name lclavicle
     direction 0.970962 0.239191 0.00450212  
     length 3.84872  
     axis 0 0 0   XYZ
    dof ry rz
    limits (-20.0 10.0)
           (0.0 20.0)
  end
  begin
     id 18 
     name lhumerus
     direction 1 -4.48966e-011 5.74696e-028   
     length 5.22771   
     axis 180 -30 -90   XYZ
    dof rx ry rz
    limits (-60.0 90.0)
           (-90.0 90.0)
           (-90.0 90.0)
  end
  begin
     id 19
     name lradius
     direction 1 -4.4896e-011 4.25109e-027   
     length 3.45251   
     axis 180 -30 -90   XYZ
    dof rx
    limits (-10.0 170.0)
  end
  begin
     id 20
     name lwrist
     direction 1 -4.48971e-011 1.15382e-027   
     length 1.72626   
     axis -5.52449e-016 90 90   XYZ
    dof ry
    limits (-180.0 0.0)
 end
  begin
     id 21 
     name lhand
     direction 1 -4.49034e-011 2.30765e-027   
     length 0.552119   
     axis -1.47248e-015 90 90   XYZ
    dof rx rz
    limits (-90.0 90.0)
           (-45.0 45.0)
  end
  begin
     id 22 
     name lfingers
     direction 1 -4.48951e-011 4.61529e-027   
     length 0.445133   
     axis -2.94495e-015 90 90   XYZ
    dof rx
    limits (0.0 90.0)
  end
  begin
     id 23
     name lthumb
     direction 0.707107 -6.34991e-011 0.707107   
     length 0.639124   
     axis -90 45 2.85299e-015   XYZ
    dof rx rz
    limits (-45.0 45.0)
           (-45.0 45.0)
  end
  begin
     id 24 
     name rclavicle
     direction -0.97424 0.222511 -0.0366699   
     length 3.73439  
     axis 0 0 0   XYZ 
    dof ry rz
    limits (-10.0 20.0)
           (-20.0 0.0)
  end
  begin
     id 25 
     name rhumerus
     direction -1 -4.48956e-011 -4.97258e-028  
     length 5.2398   
     axis 180 30 90   XYZ
    dof rx ry rz
    limits (-90.0 60.0)
           (-90.0 90.0)
           (-90.0 90.0)
  end
  begin
     id 26 
     name rradius
     direction -1 -4.4897e-011 -1.72611e-027   
     length 3.48042   
     axis 180 30 90   XYZ
    dof rx
    limits (-10.0 170.0)
  end
  begin
     id 27 
     name rwrist
     direction -1 -4.48976e-011 1.15382e-027   
     length 1.74021   
     axis -5.52449e-016 -90 -90   XYZ
    dof ry
    limits (-180.0 0.0)
  end
  begin
     id 28
     name rhand
     direction -1 -4.48963e-011 2.30765e-027   
     length 0.618713   
     axis -1.47248e-015 -90 -90   XYZ
    dof rx rz
    limits (-90.0 90.0)
           (-45.0 45.0)
  end
  begin
     id 29
     name rfingers
     direction -1 -4.4888e-011 4.61529e-027   
     length 0.498823   
     axis -2.94495e-015 -90 -90   XYZ
    dof rx
    limits (0.0 90.0)
  end
  begin
     id 30
     name rthumb
     direction -0.707107 -6.34968e-011 0.707107   
     length 0.716213   
     axis -90 -45 -2.85299e-015   XYZ
    dof rx rz
    limits (-45.0 45.0)
           (-45.0 45.0)
  end
:hierarchy
  begin
    root lhipjoint rhipjoint lowerback
    lhipjoint lfemur
    lfemur ltibia
    ltibia lfoot
    lfoot ltoes
    rhipjoint rfemur
    rfemur rtibia
    rtibia rfoot
    rfoot rtoes
    lowerback upperback
    upperback thorax
    thorax lowerneck lclavicle rclavicle
    lowerneck upperneck
    upperneck head
    lclavicle lhumerus
    lhumerus lradius
    lradius lwrist
    lwrist lhand lthumb
    lhand lfingers
    rclavicle rhumerus
    rhumerus rradius
    rradius rwrist
    rwrist rhand rthumb
    rhand rfingers
  end

#!OML:ASF G:\JayActor3\Patient Classification 1\Patient 1\Session 5\male.ASF
:FULLY-SPECIFIED
:DEGREES
59
root -38.7081 16.9417 -5.24135 -121.777 85.5713 -119.387
lowerback 1.09852 -0.846171 3.3225
upperback 3.95399 -1.0959 -0.0856728
thorax 3.38957 -0.413915 -1.9672
lowerneck -7.94635 -1.3575 0.764853
upperneck 10.9828 -2.18544 2.6676
head 4.61914 -0.853044 0.56205
rclavicle -3.67752e-015 1.27222e-014
rhumerus -31.3374 -4.69309 -87.4939
rradius 27.9066
rwrist 2.23071
rhand -20.346 -9.41841
rfingers 7.12502
rthumb 6.00579 -39.3133
lclavicle -3.67752e-015 1.27222e-014
lhumerus -28.6978 5.08331 85.6335
lradius 24.3996
lwrist 17.3431
lhand -19.7641 23.5221
lfingers 7.12502
lthumb 6.56757 53.4002
rfemur -9.76431 3.45952 24.3755
rtibia 36.5706
rfoot -25.683 -13.0408
rtoes 9.28276
lfemur -1.53588 5.27988 -16.896
ltibia 23.7721
lfoot -17.723 5.2541
ltoes -9.16138
60
root -38.7122 16.9412 -5.2455 -121.559 85.5739 -119.188
lowerback 1.10837 -0.850389 3.31214
upperback 3.9436 -1.10126 -0.0797362
thorax 3.37315 -0.417538 -1.95512
lowerneck -7.9479 -1.35682 0.771529
upperneck 10.9789 -2.18579 2.67151
head 4.61818 -0.852757 0.562144
rclavicle -1.54058e-015 5.96354e-015
rhumerus -31.3433 -4.67688 -87.4706
rradius 27.8824
rwrist 2.24718
rhand -20.3247 -9.35441
rfingers 7.12502
rthumb 6.02631 -39.2487
lclavicle -1.54058e-015 5.96354e-015
lhumerus -28.7018 5.07159 85.6546
lradius 24.3857
lwrist 17.3463
lhand -19.7758 23.4714
lfingers 7.12502
lthumb 6.55622 53.3499
rfemur -9.81291 3.46775 24.3561
rtibia 36.5902
rfoot -25.6518 -12.9948
rtoes 9.24494
lfemur -1.5945 5.30998 -16.9034
ltibia 23.8136
lfoot -17.7396 5.24042
ltoes -9.10976
61
root -38.7167 16.9408 -5.24988 -121.42 85.5766 -119.066
lowerback 1.12253 -0.855596 3.2969
upperback 3.93599 -1.10765 -0.0747466
thorax 3.35718 -0.421724 -1.94125
lowerneck -7.95002 -1.35874 0.785561
upperneck 10.9677 -2.18964 2.66802
head 4.61499 -0.854498 0.558545
rclavicle 2.03754e-015 -1.19271e-014
rhumerus -31.3475 -4.66638 -87.4432
rradius 27.8613
rwrist 2.27056
rhand -20.2972 -9.25791
rfingers 7.12502
rthumb 6.05287 -39.1514
lclavicle 2.03754e-015 -1.19271e-014
lhumerus -28.7016 5.05904 85.6759
lradius 24.3704
lwrist 17.3446
lhand -19.7872 23.4133
lfingers 7.12502
lthumb 6.5452 53.2922
rfemur -9.86107 3.47883 24.334
rtibia 36.6122
rfoot -25.6262 -12.956
rtoes 9.21173
lfemur -1.65015 5.33826 -16.9153
ltibia 23.8524
lfoot -17.7574 5.22513
ltoes -9.05685
62
root -38.722 16.9405 -5.25447 -121.362 85.5747 -119.024
lowerback 1.14261 -0.863553 3.28005
upperback 3.93074 -1.11743 -0.0690731
thorax 3.34017 -0.427596 -1.92574
lowerneck -7.95013 -1.36146 0.803199
upperneck 10.9448 -2.19445 2.66142
head 4.60775 -0.857017 0.553376
rclavicle 8.84592e-015 -1.03368e-014
rhumerus -31.3475 -4.65389 -87.4161
rradius 27.8456
rwrist 2.29624
rhand -20.2722 -9.16222
rfingers 7.12502
rthumb 6.07699 -39.0551
lclavicle 8.84592e-015 -1.03368e-014
lhumerus -28.6965 5.04436 85.6982
lradius 24.3551
lwrist 17.3435
lhand -19.7977 23.3487
lfingers 7.12502
lthumb 6.53507 53.2279
rfemur -9.91149 3.4903 24.313
rtibia 36.6367
rfoot -25.6059 -12.9261
rtoes 9.17526
lfemur -1.70748 5.35633 -16.9288
ltibia 23.8892
lfoot -17.7704 5.21325
ltoes -9.01569
63
root -38.7283 16.9404 -5.25939 -121.394 85.5721 -119.075
lowerback 1.16291 -0.872838 3.25668
upperback 3.92843 -1.12891 -0.0622086
thorax 3.32611 -0.434415 -1.9054
lowerneck -7.94651 -1.36481 0.819815
upperneck 10.9089 -2.19984 2.65608
head 4.59596 -0.860081 0.548775
rclavicle -9.93923e-016 -3.18055e-015
rhumerus -31.3386 -4.64154 -87.3873
rradius 27.8348
rwrist 2.32196
rhand -20.2584 -9.07936
rfingers 7.12502
rthumb 6.09031 -38.9718
lclavicle -9.93923e-016 -3.18055e-015
lhumerus -28.6814 5.02942 85.7247
lradius 24.3382
lwrist 17.3391
lhand -19.8042 23.2744
lfingers 7.12502
lthumb 6.52886 53.1538
rfemur -9.97036 3.49719 24.286
rtibia 36.6643
rfoot -25.5902 -12.8927
rtoes 9.15227
lfemur -1.77543 5.35926 -16.9511
ltibia 23.9283
lfoot -17.7814 5.21079
ltoes -8.97191
